<svg width="182" height="42" viewBox="0 0 182 42" fill="none" xmlns="http://www.w3.org/2000/svg">
<path d="M80.1456 10.1818V32H76.1612L66.669 18.2678H66.5092V32H61.8963V10.1818H65.9446L75.3622 23.9034H75.554V10.1818H80.1456ZM90.429 32.3196C88.7458 32.3196 87.2969 31.9787 86.0824 31.2969C84.875 30.608 83.9446 29.6349 83.2912 28.3778C82.6378 27.1136 82.3111 25.6186 82.3111 23.8928C82.3111 22.2095 82.6378 20.7322 83.2912 19.4609C83.9446 18.1896 84.8644 17.1989 86.0505 16.4886C87.2436 15.7784 88.6428 15.4233 90.2479 15.4233C91.3275 15.4233 92.3324 15.5973 93.2628 15.9453C94.2003 16.2862 95.0171 16.8011 95.7131 17.4901C96.4162 18.179 96.9631 19.0455 97.3537 20.0895C97.7444 21.1264 97.9397 22.3409 97.9397 23.733V24.9794H84.1222V22.1669H93.6677C93.6677 21.5135 93.5256 20.9347 93.2415 20.4304C92.9574 19.9261 92.5632 19.532 92.059 19.2479C91.5618 18.9567 90.983 18.8111 90.3225 18.8111C89.6336 18.8111 89.0228 18.9709 88.4901 19.2905C87.9645 19.603 87.5526 20.0256 87.2543 20.5582C86.956 21.0838 86.8033 21.6697 86.7962 22.3161V24.9901C86.7962 25.7997 86.9453 26.4993 87.2436 27.0888C87.549 27.6783 87.9787 28.1328 88.5327 28.4524C89.0867 28.772 89.7436 28.9318 90.5036 28.9318C91.0078 28.9318 91.4695 28.8608 91.8885 28.7188C92.3076 28.5767 92.6662 28.3636 92.9645 28.0795C93.2628 27.7955 93.4901 27.4474 93.6463 27.0355L97.8438 27.3125C97.6307 28.321 97.1939 29.2017 96.5334 29.9545C95.88 30.7003 95.0348 31.2827 93.9979 31.7017C92.9681 32.1136 91.7784 32.3196 90.429 32.3196ZM108.705 15.6364V19.0455H98.8507V15.6364H108.705ZM101.088 11.7159H105.626V26.9716C105.626 27.3906 105.69 27.7173 105.818 27.9517C105.946 28.179 106.123 28.3388 106.351 28.4311C106.585 28.5234 106.855 28.5696 107.16 28.5696C107.373 28.5696 107.587 28.5518 107.8 28.5163C108.013 28.4737 108.176 28.4418 108.29 28.4205L109.003 31.7976C108.776 31.8686 108.457 31.9503 108.045 32.0426C107.633 32.142 107.132 32.2024 106.543 32.2237C105.449 32.2663 104.49 32.1207 103.666 31.7869C102.849 31.4531 102.214 30.9347 101.759 30.2315C101.305 29.5284 101.081 28.6406 101.088 27.5682V11.7159ZM111.198 32V10.1818H119.934C121.539 10.1818 122.878 10.4197 123.95 10.8956C125.023 11.3714 125.829 12.032 126.369 12.8771C126.908 13.7152 127.178 14.6811 127.178 15.7749C127.178 16.6271 127.008 17.3764 126.667 18.0227C126.326 18.6619 125.857 19.1875 125.261 19.5994C124.671 20.0043 123.997 20.2919 123.237 20.4624V20.6754C124.068 20.7109 124.845 20.9453 125.57 21.3786C126.301 21.8118 126.894 22.419 127.349 23.2003C127.803 23.9744 128.031 24.8977 128.031 25.9702C128.031 27.1278 127.743 28.1612 127.168 29.0703C126.6 29.9723 125.758 30.6861 124.643 31.2116C123.528 31.7372 122.154 32 120.52 32H111.198ZM115.811 28.2287H119.572C120.857 28.2287 121.795 27.9837 122.384 27.4936C122.974 26.9964 123.269 26.3359 123.269 25.5121C123.269 24.9084 123.123 24.3757 122.832 23.9141C122.541 23.4524 122.125 23.0902 121.585 22.8274C121.053 22.5646 120.417 22.4332 119.678 22.4332H115.811V28.2287ZM115.811 19.3118H119.231C119.863 19.3118 120.424 19.2017 120.914 18.9815C121.411 18.7543 121.802 18.4347 122.086 18.0227C122.377 17.6108 122.523 17.1172 122.523 16.5419C122.523 15.7536 122.242 15.1179 121.681 14.6349C121.127 14.152 120.339 13.9105 119.316 13.9105H115.811V19.3118ZM134.713 32.3089C133.669 32.3089 132.739 32.1278 131.922 31.7656C131.105 31.3963 130.459 30.853 129.983 30.1357C129.514 29.4112 129.28 28.5092 129.28 27.4297C129.28 26.5206 129.447 25.7571 129.781 25.1392C130.114 24.5213 130.569 24.0241 131.144 23.6477C131.72 23.2713 132.373 22.9872 133.105 22.7955C133.843 22.6037 134.617 22.4688 135.427 22.3906C136.379 22.2912 137.146 22.1989 137.728 22.1136C138.311 22.0213 138.733 21.8864 138.996 21.7088C139.259 21.5312 139.39 21.2685 139.39 20.9205V20.8565C139.39 20.1818 139.177 19.6598 138.751 19.2905C138.332 18.9212 137.735 18.7365 136.961 18.7365C136.144 18.7365 135.494 18.9176 135.012 19.2798C134.529 19.6349 134.209 20.0824 134.053 20.6222L129.855 20.2812C130.068 19.2869 130.487 18.4276 131.112 17.7031C131.737 16.9716 132.543 16.4105 133.531 16.0199C134.525 15.6222 135.676 15.4233 136.982 15.4233C137.891 15.4233 138.762 15.5298 139.592 15.7429C140.431 15.956 141.173 16.2862 141.819 16.7337C142.472 17.1811 142.987 17.7564 143.364 18.4595C143.74 19.1555 143.928 19.9901 143.928 20.9631V32H139.624V29.7308H139.497C139.234 30.2422 138.882 30.6932 138.442 31.0838C138.002 31.4673 137.472 31.7692 136.855 31.9893C136.237 32.2024 135.523 32.3089 134.713 32.3089ZM136.013 29.1768C136.681 29.1768 137.27 29.0455 137.781 28.7827C138.293 28.5128 138.694 28.1506 138.985 27.696C139.276 27.2415 139.422 26.7266 139.422 26.1513V24.4148C139.28 24.5071 139.085 24.5923 138.836 24.6705C138.595 24.7415 138.321 24.8089 138.016 24.8729C137.71 24.9297 137.405 24.983 137.1 25.0327C136.794 25.0753 136.517 25.1143 136.269 25.1499C135.736 25.228 135.271 25.3523 134.873 25.5227C134.475 25.6932 134.166 25.924 133.946 26.2152C133.726 26.4993 133.616 26.8544 133.616 27.2805C133.616 27.8984 133.84 28.3707 134.287 28.6974C134.742 29.017 135.317 29.1768 136.013 29.1768ZM151.088 22.5398V32H146.549V15.6364H150.875V18.5234H151.066C151.429 17.5717 152.036 16.8189 152.888 16.2649C153.74 15.7038 154.774 15.4233 155.988 15.4233C157.125 15.4233 158.115 15.6719 158.961 16.169C159.806 16.6662 160.463 17.3764 160.931 18.2997C161.4 19.2159 161.635 20.3097 161.635 21.581V32H157.096V22.3906C157.103 21.3892 156.848 20.608 156.329 20.0469C155.811 19.4787 155.097 19.1946 154.188 19.1946C153.577 19.1946 153.037 19.326 152.569 19.5888C152.107 19.8516 151.745 20.2351 151.482 20.7393C151.226 21.2365 151.095 21.8366 151.088 22.5398ZM170.341 32.2663C169.098 32.2663 167.973 31.9467 166.964 31.3075C165.963 30.6612 165.167 29.7131 164.578 28.4631C163.995 27.206 163.704 25.6648 163.704 23.8395C163.704 21.9645 164.006 20.4055 164.61 19.1626C165.213 17.9126 166.016 16.9787 167.017 16.3608C168.026 15.7358 169.13 15.4233 170.331 15.4233C171.247 15.4233 172.01 15.5795 172.621 15.892C173.239 16.1974 173.736 16.581 174.113 17.0426C174.496 17.4972 174.787 17.9446 174.986 18.3849H175.125V10.1818H179.652V32H175.178V29.3793H174.986C174.773 29.8338 174.471 30.2848 174.081 30.7322C173.697 31.1726 173.196 31.5384 172.579 31.8295C171.968 32.1207 171.222 32.2663 170.341 32.2663ZM171.78 28.6548C172.511 28.6548 173.129 28.456 173.633 28.0582C174.145 27.6534 174.535 27.0888 174.805 26.3643C175.082 25.6399 175.221 24.7912 175.221 23.8182C175.221 22.8452 175.086 22 174.816 21.2827C174.546 20.5653 174.155 20.0114 173.644 19.6207C173.132 19.2301 172.511 19.0348 171.78 19.0348C171.034 19.0348 170.405 19.2372 169.894 19.642C169.382 20.0469 168.995 20.608 168.733 21.3253C168.47 22.0426 168.338 22.8736 168.338 23.8182C168.338 24.7699 168.47 25.6115 168.733 26.343C169.003 27.0675 169.39 27.6357 169.894 28.0476C170.405 28.4524 171.034 28.6548 171.78 28.6548Z" fill="#FF1749"/>
<path fill-rule="evenodd" clip-rule="evenodd" d="M52.7278 24.3842C52.7278 23.0395 51.638 21.9496 50.2932 21.9496H2.43458C1.09008 21.9496 0 23.0395 0 24.3842V33.4845C0 34.8292 1.09008 35.9193 2.43458 35.9193H50.2932C51.638 35.9193 52.7278 34.8292 52.7278 33.4845V24.3842ZM51.8029 24.3842V33.4845C51.8029 34.3184 51.1269 34.9942 50.2932 34.9942H2.4348C1.60093 34.9942 0.925124 34.3184 0.925124 33.4847V24.3842C0.925124 23.5506 1.60093 22.8748 2.43458 22.8745H50.2932C51.1269 22.8748 51.8029 23.5506 51.8029 24.3842Z" fill="#FF1749"/>
<path fill-rule="evenodd" clip-rule="evenodd" d="M48.6994 35.723C48.7989 35.5818 48.8113 35.3969 48.7316 35.2437C48.6521 35.0903 48.4938 34.9942 48.3211 34.9942H4.40671C4.2342 34.9942 4.07569 35.0903 3.99621 35.2437C3.91673 35.3969 3.92916 35.5818 4.02862 35.723C4.02862 35.723 4.76703 36.7716 5.34759 37.5962C5.86422 38.3299 6.70564 38.7666 7.60301 38.7666H45.125C46.0224 38.7666 46.8636 38.3299 47.3804 37.5962C47.961 36.7716 48.6994 35.723 48.6994 35.723ZM47.4297 35.9193L46.624 37.0635C46.2806 37.5513 45.7213 37.8415 45.125 37.8415H7.60301C7.00647 37.8415 6.44744 37.5513 6.10399 37.0635L5.29809 35.9193H47.4297Z" fill="#FF1749"/>
<path fill-rule="evenodd" clip-rule="evenodd" d="M7.39234 26.2123C6.42969 26.2123 5.64821 26.9938 5.64821 27.9564V29.9123C5.64821 30.875 6.42969 31.6567 7.39234 31.6567C8.35498 31.6567 9.13646 30.875 9.13646 29.9123V27.9564C9.13646 26.9938 8.35498 26.2123 7.39234 26.2123ZM7.39234 27.1372C7.84435 27.1372 8.21156 27.5044 8.21156 27.9564V29.9123C8.21156 30.3646 7.84435 30.7316 7.39234 30.7316C6.94032 30.7316 6.57311 30.3646 6.57311 29.9123V27.9564C6.57311 27.5044 6.94032 27.1372 7.39234 27.1372Z" fill="#FF1749"/>
<path fill-rule="evenodd" clip-rule="evenodd" d="M12.8409 26.2123C11.8783 26.2123 11.0968 26.9938 11.0968 27.9564V29.9123C11.0968 30.875 11.8783 31.6567 12.8409 31.6567C13.8036 31.6567 14.5853 30.875 14.5853 29.9123V27.9564C14.5853 26.9938 13.8036 26.2123 12.8409 26.2123ZM12.8409 27.1372C13.2932 27.1372 13.6602 27.5044 13.6602 27.9564V29.9123C13.6602 30.3646 13.2932 30.7316 12.8409 30.7316C12.3889 30.7316 12.0219 30.3646 12.0219 29.9123V27.9564C12.0219 27.5044 12.3889 27.1372 12.8409 27.1372Z" fill="#FF1749"/>
<path fill-rule="evenodd" clip-rule="evenodd" d="M18.2898 26.2123C17.3271 26.2123 16.5454 26.9938 16.5454 27.9564V29.9123C16.5454 30.875 17.3271 31.6567 18.2898 31.6567C19.2524 31.6567 20.0339 30.875 20.0339 29.9123V27.9564C20.0339 26.9938 19.2524 26.2123 18.2898 26.2123ZM18.2898 27.1372C18.7418 27.1372 19.1088 27.5044 19.1088 27.9564V29.9123C19.1088 30.3646 18.7418 30.7316 18.2898 30.7316C17.8375 30.7316 17.4706 30.3646 17.4706 29.9123V27.9564C17.4706 27.5044 17.8375 27.1372 18.2898 27.1372Z" fill="#FF1749"/>
<path fill-rule="evenodd" clip-rule="evenodd" d="M44.3578 26.2123C42.8552 26.2123 41.6355 27.432 41.6355 28.9344C41.6355 30.4367 42.8552 31.6567 44.3578 31.6567C45.8601 31.6567 47.0799 30.4367 47.0799 28.9344C47.0799 27.432 45.8601 26.2123 44.3578 26.2123ZM44.3578 27.1372C45.3495 27.1372 46.1547 27.9426 46.1547 28.9344C46.1547 29.9263 45.3495 30.7316 44.3578 30.7316C43.3658 30.7316 42.5606 29.9263 42.5606 28.9344C42.5606 27.9426 43.3658 27.1372 44.3578 27.1372Z" fill="#FF1749"/>
<path fill-rule="evenodd" clip-rule="evenodd" d="M14.0851 38.3039C14.0851 38.0486 13.878 37.8415 13.6224 37.8415H10.0949C9.83957 37.8415 9.63243 38.0486 9.63243 38.3039V40.5514C9.63243 40.9357 9.78518 41.304 10.0567 41.5757C10.3284 41.8473 10.6968 42 11.0811 42H12.6365C13.0206 42 13.3891 41.8473 13.6608 41.5757C13.9324 41.304 14.0851 40.9357 14.0851 40.5514C14.0851 39.6003 14.0851 38.3039 14.0851 38.3039ZM13.16 38.7666V40.5514C13.16 40.6901 13.1047 40.8233 13.0066 40.9215C12.9084 41.0198 12.7752 41.0749 12.6365 41.0749H11.0811C10.9421 41.0749 10.8091 41.0198 10.7107 40.9215C10.6126 40.8233 10.5576 40.6901 10.5576 40.5514V38.7666H13.16Z" fill="#FF1749"/>
<path fill-rule="evenodd" clip-rule="evenodd" d="M43.0956 38.3039C43.0956 38.0486 42.8885 37.8415 42.633 37.8415H39.1054C38.8501 37.8415 38.643 38.0486 38.643 38.3039V40.5514C38.643 40.9357 38.7957 41.304 39.0672 41.5757C39.339 41.8473 39.7073 42 40.0916 42H41.647C42.0311 42 42.3996 41.8473 42.6712 41.5757C42.9429 41.304 43.0956 40.9357 43.0956 40.5514C43.0956 39.6003 43.0956 38.3039 43.0956 38.3039ZM42.1705 38.7666V40.5514C42.1705 40.6901 42.1152 40.8233 42.0171 40.9215C41.919 41.0198 41.7858 41.0749 41.647 41.0749H40.0916C39.9526 41.0749 39.8196 41.0198 39.7213 40.9215C39.6231 40.8233 39.5681 40.6901 39.5681 40.5514V38.7666H42.1705Z" fill="#FF1749"/>
<path fill-rule="evenodd" clip-rule="evenodd" d="M7.96267 22.5092C8.00818 22.7223 8.19667 22.8746 8.41491 22.8746H13.9397C14.0875 22.8746 14.2265 22.804 14.3135 22.6843C14.4006 22.5647 14.4252 22.4108 14.3797 22.2701L8.34253 3.58464C8.02705 2.43506 6.84018 1.75348 5.68705 2.06252C4.53192 2.37201 3.84457 3.55911 4.14984 4.71423C4.14828 4.70846 7.96267 22.5092 7.96267 22.5092ZM8.78878 21.9497L5.05076 4.50488C5.04921 4.49733 5.04721 4.48956 5.04521 4.48201C4.86738 3.81775 5.26212 3.13395 5.92638 2.9559C6.59064 2.77807 7.27443 3.1728 7.45249 3.83706C7.45449 3.84461 7.45671 3.85216 7.45915 3.85949L13.3041 21.9497H8.78878Z" fill="#FF1749"/>
<path fill-rule="evenodd" clip-rule="evenodd" d="M38.3481 22.27C38.3028 22.4108 38.3273 22.5646 38.4143 22.6843C38.5013 22.804 38.6405 22.8746 38.7884 22.8746H44.3131C44.5312 22.8746 44.7196 22.7223 44.7654 22.5091L48.5795 4.70844C48.8813 3.55509 48.1941 2.37132 47.041 2.0625C45.8861 1.75302 44.697 2.43726 44.384 3.59039C44.3855 3.58462 38.3481 22.27 38.3481 22.27ZM39.4238 21.9497L45.2689 3.85947C45.2711 3.85214 45.2733 3.84459 45.2756 3.83704C45.4534 3.17278 46.1372 2.77805 46.8017 2.95588C47.4659 3.13393 47.8607 3.81773 47.6826 4.48199C47.6806 4.48954 47.6788 4.49731 47.6773 4.50486L43.9393 21.9497H39.4238Z" fill="#FF1749"/>
<path fill-rule="evenodd" clip-rule="evenodd" d="M26.3639 11.6747C24.59 11.6747 23.1501 13.1149 23.1501 14.8888C23.1501 16.6627 24.59 18.1028 26.3639 18.1028C28.1378 18.1028 29.578 16.6627 29.578 14.8888C29.578 13.1149 28.1378 11.6747 26.3639 11.6747ZM26.3639 12.5998C27.6274 12.5998 28.6529 13.6255 28.6529 14.8888C28.6529 16.152 27.6274 17.1777 26.3639 17.1777C25.1007 17.1777 24.075 16.152 24.075 14.8888C24.075 13.6255 25.1007 12.5998 26.3639 12.5998Z" fill="#FF1749"/>
<path fill-rule="evenodd" clip-rule="evenodd" d="M34.0093 10.5979C32.6204 7.77839 29.717 5.83734 26.3639 5.83734C23.0111 5.83734 20.1074 7.77839 18.7187 10.5979C18.2496 11.5502 18.6412 12.7022 19.5934 13.1713C20.5456 13.6402 21.6977 13.2485 22.1668 12.2963C22.9294 10.7482 24.5228 9.68103 26.3639 9.68103C28.2051 9.68103 29.7987 10.7482 30.5613 12.2963C31.0302 13.2485 32.1824 13.6402 33.1346 13.1713C34.0866 12.7022 34.4785 11.5502 34.0093 10.5979ZM33.1795 11.0067C33.4228 11.5006 33.2196 12.0981 32.7257 12.3414C32.2319 12.5847 31.6343 12.3814 31.3912 11.8876C30.4778 10.0336 28.5689 8.75613 26.3639 8.75613C24.1591 8.75613 22.2503 10.0336 21.3369 11.8876C21.0936 12.3814 20.4961 12.5847 20.0022 12.3414C19.5084 12.0981 19.3053 11.5004 19.5484 11.0067C20.7865 8.49305 23.3747 6.76246 26.3639 6.76246C29.3531 6.76246 31.9413 8.49305 33.1795 11.0067Z" fill="#FF1749"/>
<path fill-rule="evenodd" clip-rule="evenodd" d="M37.2905 6.04649C35.0086 2.41482 30.9658 0 26.3639 0C21.7621 0 17.7194 2.41482 15.4374 6.04649C14.8728 6.9452 15.1434 8.13163 16.0424 8.69643C16.9411 9.26101 18.1273 8.99037 18.6921 8.09167C20.2946 5.54142 23.1323 3.84369 26.3639 3.84369C29.5955 3.84369 32.4335 5.54142 34.036 8.09167C34.6006 8.99037 35.787 9.26101 36.6857 8.69643C37.5844 8.13163 37.8553 6.9452 37.2905 6.04649ZM36.5072 6.5387C36.8003 7.00492 36.6597 7.62012 36.1935 7.91317C35.7275 8.20601 35.1121 8.06547 34.8192 7.59947C33.0531 4.78902 29.9254 2.91857 26.3639 2.91857C22.8026 2.91857 19.6747 4.78902 17.9088 7.59947C17.616 8.06547 17.0006 8.20601 16.5343 7.91317C16.0683 7.62012 15.9278 7.00492 16.2206 6.5387C18.3391 3.16722 22.092 0.925124 26.3639 0.925124C30.6361 0.925124 34.3888 3.16722 36.5072 6.5387Z" fill="#FF1749"/>
</svg>
