<svg width="53" height="42" viewBox="0 0 53 42" fill="none" xmlns="http://www.w3.org/2000/svg">
<path fill-rule="evenodd" clip-rule="evenodd" d="M52.7278 24.3842C52.7278 23.0395 51.638 21.9496 50.2932 21.9496H2.43458C1.09008 21.9496 0 23.0395 0 24.3842V33.4845C0 34.8292 1.09008 35.9193 2.43458 35.9193H50.2932C51.638 35.9193 52.7278 34.8292 52.7278 33.4845V24.3842ZM51.8029 24.3842V33.4845C51.8029 34.3184 51.1269 34.9942 50.2932 34.9942H2.4348C1.60093 34.9942 0.925124 34.3184 0.925124 33.4847V24.3842C0.925124 23.5506 1.60093 22.8748 2.43458 22.8745H50.2932C51.1269 22.8748 51.8029 23.5506 51.8029 24.3842Z" fill="#D5111D"/>
<path fill-rule="evenodd" clip-rule="evenodd" d="M48.6994 35.723C48.7989 35.5818 48.8113 35.3969 48.7316 35.2437C48.6521 35.0903 48.4938 34.9942 48.3211 34.9942H4.40671C4.2342 34.9942 4.07569 35.0903 3.99621 35.2437C3.91673 35.3969 3.92916 35.5818 4.02862 35.723C4.02862 35.723 4.76703 36.7716 5.34759 37.5962C5.86422 38.3299 6.70564 38.7666 7.60301 38.7666H45.125C46.0224 38.7666 46.8636 38.3299 47.3804 37.5962C47.961 36.7716 48.6994 35.723 48.6994 35.723ZM47.4297 35.9193L46.624 37.0635C46.2806 37.5513 45.7213 37.8415 45.125 37.8415H7.60301C7.00647 37.8415 6.44744 37.5513 6.10399 37.0635L5.29809 35.9193H47.4297Z" fill="#D5111D"/>
<path fill-rule="evenodd" clip-rule="evenodd" d="M7.39234 26.2123C6.42969 26.2123 5.64821 26.9938 5.64821 27.9564V29.9123C5.64821 30.875 6.42969 31.6567 7.39234 31.6567C8.35498 31.6567 9.13646 30.875 9.13646 29.9123V27.9564C9.13646 26.9938 8.35498 26.2123 7.39234 26.2123ZM7.39234 27.1372C7.84435 27.1372 8.21156 27.5044 8.21156 27.9564V29.9123C8.21156 30.3646 7.84435 30.7316 7.39234 30.7316C6.94032 30.7316 6.57311 30.3646 6.57311 29.9123V27.9564C6.57311 27.5044 6.94032 27.1372 7.39234 27.1372Z" fill="#D5111D"/>
<path fill-rule="evenodd" clip-rule="evenodd" d="M12.8409 26.2123C11.8783 26.2123 11.0968 26.9938 11.0968 27.9564V29.9123C11.0968 30.875 11.8783 31.6567 12.8409 31.6567C13.8036 31.6567 14.5853 30.875 14.5853 29.9123V27.9564C14.5853 26.9938 13.8036 26.2123 12.8409 26.2123ZM12.8409 27.1372C13.2932 27.1372 13.6602 27.5044 13.6602 27.9564V29.9123C13.6602 30.3646 13.2932 30.7316 12.8409 30.7316C12.3889 30.7316 12.0219 30.3646 12.0219 29.9123V27.9564C12.0219 27.5044 12.3889 27.1372 12.8409 27.1372Z" fill="#D5111D"/>
<path fill-rule="evenodd" clip-rule="evenodd" d="M18.2898 26.2123C17.3271 26.2123 16.5454 26.9938 16.5454 27.9564V29.9123C16.5454 30.875 17.3271 31.6567 18.2898 31.6567C19.2524 31.6567 20.0339 30.875 20.0339 29.9123V27.9564C20.0339 26.9938 19.2524 26.2123 18.2898 26.2123ZM18.2898 27.1372C18.7418 27.1372 19.1088 27.5044 19.1088 27.9564V29.9123C19.1088 30.3646 18.7418 30.7316 18.2898 30.7316C17.8375 30.7316 17.4706 30.3646 17.4706 29.9123V27.9564C17.4706 27.5044 17.8375 27.1372 18.2898 27.1372Z" fill="#D5111D"/>
<path fill-rule="evenodd" clip-rule="evenodd" d="M44.3578 26.2123C42.8552 26.2123 41.6355 27.432 41.6355 28.9344C41.6355 30.4367 42.8552 31.6567 44.3578 31.6567C45.8601 31.6567 47.0799 30.4367 47.0799 28.9344C47.0799 27.432 45.8601 26.2123 44.3578 26.2123ZM44.3578 27.1372C45.3495 27.1372 46.1547 27.9426 46.1547 28.9344C46.1547 29.9263 45.3495 30.7316 44.3578 30.7316C43.3658 30.7316 42.5606 29.9263 42.5606 28.9344C42.5606 27.9426 43.3658 27.1372 44.3578 27.1372Z" fill="#D5111D"/>
<path fill-rule="evenodd" clip-rule="evenodd" d="M14.0851 38.3039C14.0851 38.0486 13.878 37.8415 13.6224 37.8415H10.0949C9.83957 37.8415 9.63243 38.0486 9.63243 38.3039V40.5514C9.63243 40.9357 9.78518 41.304 10.0567 41.5757C10.3284 41.8473 10.6968 42 11.0811 42H12.6365C13.0206 42 13.3891 41.8473 13.6608 41.5757C13.9324 41.304 14.0851 40.9357 14.0851 40.5514C14.0851 39.6003 14.0851 38.3039 14.0851 38.3039ZM13.16 38.7666V40.5514C13.16 40.6901 13.1047 40.8233 13.0066 40.9215C12.9084 41.0198 12.7752 41.0749 12.6365 41.0749H11.0811C10.9421 41.0749 10.8091 41.0198 10.7107 40.9215C10.6126 40.8233 10.5576 40.6901 10.5576 40.5514V38.7666H13.16Z" fill="#D5111D"/>
<path fill-rule="evenodd" clip-rule="evenodd" d="M43.0956 38.3039C43.0956 38.0486 42.8885 37.8415 42.633 37.8415H39.1054C38.8501 37.8415 38.643 38.0486 38.643 38.3039V40.5514C38.643 40.9357 38.7957 41.304 39.0672 41.5757C39.339 41.8473 39.7073 42 40.0916 42H41.647C42.0311 42 42.3996 41.8473 42.6712 41.5757C42.9429 41.304 43.0956 40.9357 43.0956 40.5514C43.0956 39.6003 43.0956 38.3039 43.0956 38.3039ZM42.1705 38.7666V40.5514C42.1705 40.6901 42.1152 40.8233 42.0171 40.9215C41.919 41.0198 41.7858 41.0749 41.647 41.0749H40.0916C39.9526 41.0749 39.8196 41.0198 39.7213 40.9215C39.6231 40.8233 39.5681 40.6901 39.5681 40.5514V38.7666H42.1705Z" fill="#D5111D"/>
<path fill-rule="evenodd" clip-rule="evenodd" d="M7.96267 22.5092C8.00818 22.7223 8.19667 22.8746 8.41491 22.8746H13.9397C14.0875 22.8746 14.2265 22.804 14.3135 22.6843C14.4006 22.5647 14.4252 22.4108 14.3797 22.2701L8.34253 3.58464C8.02705 2.43506 6.84018 1.75348 5.68705 2.06252C4.53192 2.37201 3.84457 3.55911 4.14984 4.71423C4.14828 4.70846 7.96267 22.5092 7.96267 22.5092ZM8.78878 21.9497L5.05076 4.50488C5.04921 4.49733 5.04721 4.48956 5.04521 4.48201C4.86738 3.81775 5.26212 3.13395 5.92638 2.9559C6.59064 2.77807 7.27443 3.1728 7.45249 3.83706C7.45449 3.84461 7.45671 3.85216 7.45915 3.85949L13.3041 21.9497H8.78878Z" fill="#D5111D"/>
<path fill-rule="evenodd" clip-rule="evenodd" d="M38.3481 22.27C38.3028 22.4108 38.3273 22.5646 38.4143 22.6843C38.5013 22.804 38.6405 22.8746 38.7884 22.8746H44.3131C44.5312 22.8746 44.7196 22.7223 44.7654 22.5091L48.5795 4.70844C48.8813 3.55509 48.1941 2.37132 47.041 2.0625C45.8861 1.75302 44.697 2.43726 44.384 3.59039C44.3855 3.58462 38.3481 22.27 38.3481 22.27ZM39.4238 21.9497L45.2689 3.85947C45.2711 3.85214 45.2733 3.84459 45.2756 3.83704C45.4534 3.17278 46.1372 2.77805 46.8017 2.95588C47.4659 3.13393 47.8607 3.81773 47.6826 4.48199C47.6806 4.48954 47.6788 4.49731 47.6773 4.50486L43.9393 21.9497H39.4238Z" fill="#D5111D"/>
<path fill-rule="evenodd" clip-rule="evenodd" d="M26.3639 11.6747C24.59 11.6747 23.1501 13.1149 23.1501 14.8888C23.1501 16.6627 24.59 18.1028 26.3639 18.1028C28.1378 18.1028 29.578 16.6627 29.578 14.8888C29.578 13.1149 28.1378 11.6747 26.3639 11.6747ZM26.3639 12.5998C27.6274 12.5998 28.6529 13.6255 28.6529 14.8888C28.6529 16.152 27.6274 17.1777 26.3639 17.1777C25.1007 17.1777 24.075 16.152 24.075 14.8888C24.075 13.6255 25.1007 12.5998 26.3639 12.5998Z" fill="#D5111D"/>
<path fill-rule="evenodd" clip-rule="evenodd" d="M34.0093 10.5979C32.6204 7.77839 29.717 5.83734 26.3639 5.83734C23.0111 5.83734 20.1074 7.77839 18.7187 10.5979C18.2496 11.5502 18.6412 12.7022 19.5934 13.1713C20.5456 13.6402 21.6977 13.2485 22.1668 12.2963C22.9294 10.7482 24.5228 9.68103 26.3639 9.68103C28.2051 9.68103 29.7987 10.7482 30.5613 12.2963C31.0302 13.2485 32.1824 13.6402 33.1346 13.1713C34.0866 12.7022 34.4785 11.5502 34.0093 10.5979ZM33.1795 11.0067C33.4228 11.5006 33.2196 12.0981 32.7257 12.3414C32.2319 12.5847 31.6343 12.3814 31.3912 11.8876C30.4778 10.0336 28.5689 8.75613 26.3639 8.75613C24.1591 8.75613 22.2503 10.0336 21.3369 11.8876C21.0936 12.3814 20.4961 12.5847 20.0022 12.3414C19.5084 12.0981 19.3053 11.5004 19.5484 11.0067C20.7865 8.49305 23.3747 6.76246 26.3639 6.76246C29.3531 6.76246 31.9413 8.49305 33.1795 11.0067Z" fill="#D5111D"/>
<path fill-rule="evenodd" clip-rule="evenodd" d="M37.2905 6.04649C35.0086 2.41482 30.9658 0 26.3639 0C21.7621 0 17.7194 2.41482 15.4374 6.04649C14.8728 6.9452 15.1434 8.13163 16.0424 8.69643C16.9411 9.26101 18.1273 8.99037 18.6921 8.09167C20.2946 5.54142 23.1323 3.84369 26.3639 3.84369C29.5955 3.84369 32.4335 5.54142 34.036 8.09167C34.6006 8.99037 35.787 9.26101 36.6857 8.69643C37.5844 8.13163 37.8553 6.9452 37.2905 6.04649ZM36.5072 6.5387C36.8003 7.00492 36.6597 7.62012 36.1935 7.91317C35.7275 8.20601 35.1121 8.06547 34.8192 7.59947C33.0531 4.78902 29.9254 2.91857 26.3639 2.91857C22.8026 2.91857 19.6747 4.78902 17.9088 7.59947C17.616 8.06547 17.0006 8.20601 16.5343 7.91317C16.0683 7.62012 15.9278 7.00492 16.2206 6.5387C18.3391 3.16722 22.092 0.925124 26.3639 0.925124C30.6361 0.925124 34.3888 3.16722 36.5072 6.5387Z" fill="#D5111D"/>
</svg>
